<?xml version="1.0" encoding="UTF-8"?> <svg xmlns="http://www.w3.org/2000/svg" width="113.39" height="113.39" viewBox="0 0 113.39 113.39"><defs><style>.a{fill:#fff;}</style></defs><title>icon_instagram</title><path class="a" d="M56.69,45.35A11.34,11.34,0,1,0,68,56.69,11.34,11.34,0,0,0,56.69,45.35"></path><path class="a" d="M83.21,36.63a11.26,11.26,0,0,0-6.45-6.45A18.83,18.83,0,0,0,70.44,29c-3.59-.16-4.66-.2-13.74-.2s-10.16,0-13.75.2a18.82,18.82,0,0,0-6.32,1.17,11.27,11.27,0,0,0-6.46,6.45A18.84,18.84,0,0,0,29,42.95c-.16,3.59-.2,4.66-.2,13.74s0,10.16.2,13.74a18.83,18.83,0,0,0,1.17,6.32,11.27,11.27,0,0,0,6.46,6.46,18.8,18.8,0,0,0,6.32,1.17c3.59.16,4.66.2,13.75.2s10.16,0,13.74-.2a18.81,18.81,0,0,0,6.32-1.17,11.27,11.27,0,0,0,6.45-6.46,18.8,18.8,0,0,0,1.17-6.32c.16-3.59.2-4.66.2-13.74s0-10.16-.2-13.74a18.81,18.81,0,0,0-1.17-6.32M56.69,74.16A17.47,17.47,0,1,1,74.16,56.69,17.47,17.47,0,0,1,56.69,74.16M74.85,42.62a4.08,4.08,0,1,1,4.08-4.08,4.08,4.08,0,0,1-4.08,4.08"></path><path class="a" d="M56.69,0a56.69,56.69,0,1,0,56.69,56.69A56.69,56.69,0,0,0,56.69,0M90.5,70.72A25,25,0,0,1,88.92,79,17.4,17.4,0,0,1,79,88.92a25,25,0,0,1-8.26,1.58c-3.63.16-4.79.2-14,.2s-10.4,0-14-.2a25,25,0,0,1-8.26-1.58A17.4,17.4,0,0,1,24.46,79a25,25,0,0,1-1.58-8.26c-.17-3.63-.21-4.79-.21-14s0-10.4.21-14a25,25,0,0,1,1.58-8.26,17.4,17.4,0,0,1,9.95-9.95,25,25,0,0,1,8.26-1.58c3.63-.17,4.79-.21,14-.21s10.4,0,14,.21A25,25,0,0,1,79,24.46a17.4,17.4,0,0,1,9.95,9.95,25,25,0,0,1,1.58,8.26c.17,3.63.2,4.79.2,14s0,10.4-.2,14"></path></svg> 