<?xml version="1.0" encoding="UTF-8"?> <svg xmlns="http://www.w3.org/2000/svg" width="113.64" height="113.64" viewBox="0 0 113.64 113.64"><defs><style>.a{fill:#fff;}</style></defs><title>icon_twitter</title><path class="a" d="M56.82,0a56.82,56.82,0,1,0,56.82,56.82A56.82,56.82,0,0,0,56.82,0M85.36,46q0,.88,0,1.77c0,18.1-13.78,39-39,39a38.78,38.78,0,0,1-21-6.15,27.78,27.78,0,0,0,3.27.19,27.49,27.49,0,0,0,17-5.86,13.71,13.71,0,0,1-12.8-9.51,13.67,13.67,0,0,0,6.18-.23,13.7,13.7,0,0,1-11-13.43c0-.06,0-.12,0-.17a13.6,13.6,0,0,0,6.2,1.71A13.71,13.71,0,0,1,30.07,35,38.89,38.89,0,0,0,58.31,49.35,13.71,13.71,0,0,1,81.65,36.86a27.46,27.46,0,0,0,8.7-3.32,13.74,13.74,0,0,1-6,7.58A27.34,27.34,0,0,0,92.19,39,27.87,27.87,0,0,1,85.36,46"></path></svg> 