<?xml version="1.0" encoding="UTF-8"?> <svg xmlns="http://www.w3.org/2000/svg" width="835.56" height="117.39" viewBox="0 0 835.56 117.39"><defs><style>.a,.b{fill:#fff;}.b{fill-rule:evenodd;}</style></defs><title>logo_white</title><path class="a" d="M741,26.16c2.46,0,5.2,1,8.2,3.22a195.73,195.73,0,0,0,20.24,11.75,2.69,2.69,0,0,1,1.33,2.43,5.33,5.33,0,0,1-1.14,3.6,3.69,3.69,0,0,1-3,1.36,12,12,0,0,1-4.52-1.15l-.65-.28v.84a4.14,4.14,0,0,1-.62,2.55,3.71,3.71,0,0,1-3,1.15H725.22a4.14,4.14,0,0,1-2.8-.81,3.88,3.88,0,0,1-.83-2.89V46.74l-.7.38c-.4.22-.76.44-1.12.66a9.16,9.16,0,0,1-3.55,1A5,5,0,0,1,712.42,47a6.61,6.61,0,0,1-1-3.71,2.52,2.52,0,0,1,1.6-1.93,242.45,242.45,0,0,0,21.63-13.27,10.89,10.89,0,0,1,6.35-2M726.87,43.43l-1.3.86h30.6l-1.47-.87a126.4,126.4,0,0,1-12.12-8.31,2.83,2.83,0,0,0-1.55-.83,4.59,4.59,0,0,0-2.24.74q-6.68,5-11.92,8.41"></path><path class="a" d="M716.68,58h49.16a4.76,4.76,0,0,1,3.13.81c.45.39.76,1.28.76,2.89a4.25,4.25,0,0,1-.68,2.68,4,4,0,0,1-3.21,1.22h-7l.92.82a52.3,52.3,0,0,1,9.12,11.22A5.81,5.81,0,0,1,770,80.81c0,1.73-.4,2.66-1,3-.69.9-1.82,1.38-3.71,1.38a3.12,3.12,0,0,1-3-1.82c-.71-1.07-1.5-2.2-2.34-3.35l-.43-.19a170.28,170.28,0,0,1-22.46,2.85q-13.33,1-18.49,1c-3,0-4.49-1.56-4.49-5,0-1.81,1.25-3,4.29-3.44l5.18-.13,5.18-9.6H716.68a4.44,4.44,0,0,1-3-.87c-.55-.48-.9-1.43-.9-3s.36-2.45.89-2.89a4.53,4.53,0,0,1,3-.81m36.81,15.35.94,0-.6-.73c-.67-.8-1.4-1.62-2.15-2.42a3,3,0,0,1-1.18-2.25,4.24,4.24,0,0,1,.3-1.67l.27-.65H737.84l-5.07,9.31.82,0a185.61,185.61,0,0,0,19.9-1.52"></path><path class="a" d="M814,42.76V30.65a4.38,4.38,0,0,1,1-3.25c.53-.59,1.61-1,3.44-1s2.91.36,3.43.92a4.55,4.55,0,0,1,1,3.31V42.76h6.69a5,5,0,0,1,3.32.87c.51.47.84,1.5.84,3.29a4.83,4.83,0,0,1-.7,2.9,4.36,4.36,0,0,1-3.46,1.27h-6.69V75.32h8.21a5.44,5.44,0,0,1,3.6.94c.54.48.9,1.5.9,3.29a3.92,3.92,0,0,1-4.5,4.43H806a4.75,4.75,0,0,1-3.39-1.07c-.63-.53-1-1.59-1-3.36s.41-2.8,1-3.28a5.06,5.06,0,0,1,3.4-.95h8V51.09h-5.63a4.78,4.78,0,0,1-3.26-.94c-.59-.53-1-1.54-1-3.22s.38-2.8,1-3.28a4.91,4.91,0,0,1,3.27-.88Z"></path><path class="a" d="M793.17,27.29a3.53,3.53,0,0,1,1.24,2.83v5.36h3.3c3.78.17,5.57,1.69,5.76,4.46a7.43,7.43,0,0,1-1.29,4.65,42.27,42.27,0,0,1-3.33,5.71l-.22.32.27.28a52,52,0,0,0,6.87,5.94,5.19,5.19,0,0,1,1.85,3.26,3.93,3.93,0,0,1-1.1,3.09,5.77,5.77,0,0,1-4.92,2.66,3,3,0,0,1-1.72-.51,41,41,0,0,1-4.9-4.06l-.8-.77V81.07c0,1.61-.42,2.6-1.14,3.13a5.06,5.06,0,0,1-6.06.06,3.69,3.69,0,0,1-1.2-3.19V63.66l-.77.64a8.43,8.43,0,0,1-.75.57c-.68,1-1.84,1.56-3.85,1.77-2.14-.18-3.4-.75-4-1.58a4.48,4.48,0,0,1-1-3.17c0-.33.31-1,1.17-2,7.77-5.55,12.58-10,14.3-13.38a2.61,2.61,0,0,0,.81-1.66.93.93,0,0,0-1-1H780.45a4,4,0,0,1-2.84-1,4.83,4.83,0,0,1-.86-3.25,4.55,4.55,0,0,1,1.37-3.56,4,4,0,0,1,2.33-.6h5.1V30.12a4.31,4.31,0,0,1,1.27-2.93,5,5,0,0,1,3.16-.77,4.63,4.63,0,0,1,3.19.87"></path><path class="a" d="M699.79,26.19a20.66,20.66,0,0,1,3.14,2.63,10.93,10.93,0,0,1,2.22,2.7c.29,1.09.22,1.65,0,1.86a3.77,3.77,0,0,1-3.48,1.84,3.17,3.17,0,0,1-2.77-1.31,58.18,58.18,0,0,0-5.42-4.83,1,1,0,0,1-.3-.4,2.28,2.28,0,0,1,.7-2.71,5.37,5.37,0,0,1,2.81-.73,5.16,5.16,0,0,1,3.07,1"></path><path class="a" d="M678.71,36.28s-.08-3.66-.08-5.95a5.28,5.28,0,0,1,1-3.57,5.29,5.29,0,0,1,3.44-.86,5.72,5.72,0,0,1,3.18.72,4.39,4.39,0,0,1,1.25,3.45l.14,6.21h13.82a5,5,0,0,1,3.33.88c.5.43.83,1.38.83,3.09a4.48,4.48,0,0,1-.75,2.87,4.24,4.24,0,0,1-3.41,1.29H687.79l0,1.7a86.17,86.17,0,0,0,2.33,14.45,52.46,52.46,0,0,0,4.68,12c1,1.19,1.95,2,2.72,2,1,0,2.12-1.11,3.23-2.78,1-1.37,1.71-1.85,2.2-1.85a2.92,2.92,0,0,1,2.35,1.22c1,.92,1.55,2.61,1.55,5.26A7.17,7.17,0,0,1,705.26,81a12.9,12.9,0,0,1-4.34,3.71,8.13,8.13,0,0,1-3.63.75,8.59,8.59,0,0,1-6.48-3.1,28.44,28.44,0,0,1-5.92-9.64,84.5,84.5,0,0,1-4.8-18.82q-.53-3.63-.86-7.85l0-1.63H650.51a4.92,4.92,0,0,1-3.27-.94c-.6-.53-1-1.54-1-3.22s.39-2.65,1-3.09a4.92,4.92,0,0,1,3.27-.88Z"></path><path class="a" d="M674,52.53a4.39,4.39,0,0,1,3.13.87c.48.38.84,1.32.84,3a4.12,4.12,0,0,1-.68,2.68A4,4,0,0,1,674,60.39h-6.88v13.5l10.83-.83a3.51,3.51,0,0,1,2.6,1.18,4.51,4.51,0,0,1,.8,2.79,4.1,4.1,0,0,1-1,2.93,4.76,4.76,0,0,1-2.78,1.24,246.77,246.77,0,0,1-27,2,4.24,4.24,0,0,1-3.29-1,5.21,5.21,0,0,1-.94-3.16,4.33,4.33,0,0,1,1.19-3.35c.35-.4,1.21-.74,2.8-.78q4-.26,8-.46l.45,0v-14H652a4.22,4.22,0,0,1-3-.93c-.55-.48-.9-1.44-.9-3s.35-2.61.9-3.09a4.48,4.48,0,0,1,3-.81Z"></path><path class="a" d="M613.5,29.65c.9.35,1.38,1.09,1.38,2.52a5.8,5.8,0,0,1-.19,1.48c-.13.69-.28,1.38-.46,2l-.15.59h4.84v-5.9a3.67,3.67,0,0,1,1.1-2.89,3.4,3.4,0,0,1,2.8-1.07,4.26,4.26,0,0,1,3.06,1.07,3.57,3.57,0,0,1,1.17,2.89v5.9h8.21c1.62,0,2.51.32,2.9.78a4.12,4.12,0,0,1,.73,2.86,5.67,5.67,0,0,1-.58,3,3.9,3.9,0,0,1-3.05,1h-8.21v8.68h9.73a4.23,4.23,0,0,1,2.92.8c.64.4,1,1.3,1,3.1a5.25,5.25,0,0,1-.56,3,4.11,4.11,0,0,1-3.4,1.28h-6.14l.36.69a47.16,47.16,0,0,0,10.11,13,4.79,4.79,0,0,1,.89,2.54,3.6,3.6,0,0,1-1.12,2.65,3.46,3.46,0,0,1-3,1.32,4.49,4.49,0,0,1-3.55-1.69,44.79,44.79,0,0,1-6.2-9.67,2.6,2.6,0,0,0-.15-.36l-.89-1.81V81.27a4.14,4.14,0,0,1-.83,2.63,3.94,3.94,0,0,1-3.4,1.34,3.49,3.49,0,0,1-3-1.35,3.82,3.82,0,0,1-.89-2.62V67.47l-.86,1.3A48.54,48.54,0,0,1,607.59,80.7a3.07,3.07,0,0,1-2.3.9A3.92,3.92,0,0,1,602,80c-.6-.54-1-1.56-1-3.35a5.09,5.09,0,0,1,1.14-2.52,112.43,112.43,0,0,0,9.32-8.67q1.8-1.86,3.6-4l.65-.77h-8.16a3.81,3.81,0,0,1-2.87-1,3.28,3.28,0,0,1-.39-.39,4.71,4.71,0,0,1-.65-2.19,3.39,3.39,0,0,1-.05-.63c0-1.67.43-2.66,1.09-3.14a4.24,4.24,0,0,1,2.88-.75h11.32V43.88H611.6l-.12.29a34.52,34.52,0,0,1-2,4,2.56,2.56,0,0,1-2.44,1.09,4.34,4.34,0,0,1-3.31-1.19,3.51,3.51,0,0,1-1.12-2.77,3.74,3.74,0,0,1,.36-1.4A50.13,50.13,0,0,0,607.81,31c.45-1.59,1.25-2.23,2.38-2.23a5.87,5.87,0,0,1,3.31.85"></path><path class="a" d="M603.77,61.42a1.43,1.43,0,0,1-.69,1.38,3.41,3.41,0,0,1-2.48.73,2,2,0,0,1-1.9-1.33c-.44-1-.85-2.07-1.24-3.07l-.91-2.64v25A3.75,3.75,0,0,1,595.8,84a3.69,3.69,0,0,1-3.2,1.27A3.24,3.24,0,0,1,589.79,84a3.55,3.55,0,0,1-.82-2.42V59.59L588,62.26a23,23,0,0,1-2.78,6.1,2.7,2.7,0,0,1-2.46,1.13,2.76,2.76,0,0,1-2.35-1.14,4.6,4.6,0,0,1-1.09-3.08,7,7,0,0,1,.75-2.85,103.69,103.69,0,0,0,7.76-16.1l.25-.64h-2.74a4.49,4.49,0,0,1-3.21-1.08C581.43,44,581,42.87,581,41s.47-3,1.22-3.62a4.76,4.76,0,0,1,3.21-.81H589V30.12a3.4,3.4,0,0,1,1-2.69,3.13,3.13,0,0,1,2.6-1,4,4,0,0,1,2.86,1,3.31,3.31,0,0,1,1.1,2.69v6.43H597a4.87,4.87,0,0,1,3.26.87c.72.47,1.17,1.55,1.17,3.56a5.54,5.54,0,0,1-.7,3.28A4.48,4.48,0,0,1,597,45.67h-.47v3.45l.58-.14a1.65,1.65,0,0,1,.35-.05.79.79,0,0,1,.69.34,17.65,17.65,0,0,1,2.55,3.53,30.88,30.88,0,0,1,2.09,4.58,21.92,21.92,0,0,1,1,4.05"></path><path class="b" d="M562.51,33.87c-1.77-3.06-2.62-7.4-1.09-8.28s4.86,2,6.63,5.08,1.3,5.12-.23,6-3.55.26-5.31-2.8"></path><path class="b" d="M570.18,30.68c-1.77-3.06-2.62-7.4-1.1-8.28s4.87,2,6.64,5.08,1.3,5.12-.23,6-3.54.26-5.31-2.8"></path><path class="a" d="M153.29,75.51c-1.55-1.81-2.42-2.88-2.69-3.28a6.26,6.26,0,0,1-1.22-3.45,4.76,4.76,0,0,1,1.28-3.34,3.85,3.85,0,0,1,3-1.37,4.48,4.48,0,0,1,3.82,1.84c5.32,7.28,10.78,11.2,16.42,11.2,4.2,0,7.45-.94,9.51-3.05s3-5.66,3-10.34V33a4.46,4.46,0,0,1,1.45-3.5A4.3,4.3,0,0,1,191,28.41a4.87,4.87,0,0,1,3.29,1.21A4.21,4.21,0,0,1,195.52,33V64c0,14.21-7.17,21.2-22,21.2-8,0-14.72-3.21-20.27-9.71"></path><path class="a" d="M256.62,83.7a6.06,6.06,0,0,1-4,1.53c-1.76,0-3.09-.87-4-2.89l-4.25-9H213.78l-4.25,9a4.41,4.41,0,0,1-4.26,2.9,5.54,5.54,0,0,1-3.88-1.59,4.58,4.58,0,0,1-1.67-3.58,5.28,5.28,0,0,1,.66-2.47l23.47-46.33c.93-1.86,2.57-2.84,5.19-2.84s4.26,1,5.19,2.84l23.46,46.33a5.27,5.27,0,0,1,.66,2.47,4.57,4.57,0,0,1-1.73,3.64M229,41,217.7,65.08h22.67L229,41"></path><path class="a" d="M271.66,52.18l-.3.15a6.28,6.28,0,0,1-2.37.81,4.64,4.64,0,0,1-3.87-1.48A4.44,4.44,0,0,1,264,49a3.3,3.3,0,0,1,2.34-3.4,143.43,143.43,0,0,0,18.61-14.19c3.88-3.4,6.83-5,8.89-5,1.43,0,3.57,1.16,6.44,3.72a140,140,0,0,0,21,14.35A3.49,3.49,0,0,1,323.84,48,3.74,3.74,0,0,1,323,50.7c-.69,1.33-1.88,2-3.84,2a5.42,5.42,0,0,1-2.31-.62l-.3-.14-.23.23a.74.74,0,0,0-.16.23,3.88,3.88,0,0,1-3,1h-15V61.1h16.21a4.51,4.51,0,0,1,2.94.75c.43.34.76,1.16.76,2.68a3.73,3.73,0,0,1-.69,2.48,3.61,3.61,0,0,1-3,1.16H298.23v7.43h21.11a4.41,4.41,0,0,1,3.13.87c.48.39.84,1.32.84,3a4.1,4.1,0,0,1-.68,2.68,4,4,0,0,1-3.28,1.29H267.93a4.45,4.45,0,0,1-3.07-.94c-.55-.48-.9-1.43-.9-3s.35-2.61.89-3.09a4.63,4.63,0,0,1,3.07-.81h21.64V68.17H273.09a4.13,4.13,0,0,1-2.8-.8,3.78,3.78,0,0,1-.84-2.83c0-1.46.33-2.29.82-2.68a4.25,4.25,0,0,1,2.81-.75h16.48V53.41h-14.7a4.15,4.15,0,0,1-2.8-.81Zm36.91-5.84-1.13-.84q-4.49-3.36-9.58-7.67c-1.94-1.55-3.43-2.49-4.33-2.49a3.24,3.24,0,0,0-2.24.92q-5.61,5.42-10.36,9.24l-1,.83h28.67"></path><path class="a" d="M346.78,58h36.15a2.6,2.6,0,0,1,1.84.52c.24.21.47.72.47,1.76a3.29,3.29,0,0,1-.4,1.84,2.34,2.34,0,0,1-1.91.75H346.78a2.46,2.46,0,0,1-1.83-.58,2.92,2.92,0,0,1-.48-2c0-1,.23-1.54.47-1.76a2.58,2.58,0,0,1,1.84-.52"></path><path class="a" d="M338.72,28.94H349l.05-.4a3,3,0,0,1,.79-1.85,3.89,3.89,0,0,1,2.85-.79c1.58,0,2.46.31,2.85.72a2.86,2.86,0,0,1,.79,1.9l0,.42H364l0-.42a2.57,2.57,0,0,1,.78-1.82,3.88,3.88,0,0,1,2.86-.8c1.57,0,2.45.3,2.84.72a3.28,3.28,0,0,1,.8,1.92l.05.4h10.8c3,0,4.43,1.44,4.43,4.5V44c0,3-1.42,4.42-4.43,4.42H338.72c-3,0-4.43-1.42-4.43-4.42V33.44c0-3.06,1.43-4.5,4.43-4.5m32.61,4.56v3.26H379V35.22a1.6,1.6,0,0,0-1.79-1.72h-5.89m-15,3.26H364V33.5h-7.62Zm-14.49,0h7.15V33.5h-5.43a1.57,1.57,0,0,0-1.73,1.72v1.53M349.05,44V40.72H341.9v1.53A1.57,1.57,0,0,0,343.62,44h5.43m15-3.26h-7.62V44H364ZM377.23,44A1.6,1.6,0,0,0,379,42.24V40.72h-7.69V44h5.89"></path><path class="a" d="M385.77,51.18c1.34.08,2,.81,2.11,2.4-.09,1.58-.8,2.28-2.14,2.35H344.68c-1.2,0-2.26.37-2.26,1.53v2.84q0,2-.06,3.89l0,.49h44a2.92,2.92,0,0,1,1.94.48c.23.2.44.75.44,1.9a2.57,2.57,0,0,1-.43,1.63,2.32,2.32,0,0,1-1.95.75H385l.53.74a3.44,3.44,0,0,1,.58,2.05,3,3,0,0,1-.7,1.77,17.78,17.78,0,0,1-3.39,2.8l-.71.47.78.35q2.64,1.19,5.61,2.25a3.34,3.34,0,0,1,1.79,2.95,3.3,3.3,0,0,1-1.11,2A2.79,2.79,0,0,1,385.77,86a14.72,14.72,0,0,1-4.68-.77,59.9,59.9,0,0,1-15.34-8.53A47.57,47.57,0,0,1,358,69.43h-2.44V78l.53-.07q3.1-.4,6.19-.85a2.36,2.36,0,0,1,1.8.9,3.27,3.27,0,0,1,.55,2,2.67,2.67,0,0,1-.72,2,3,3,0,0,1-2,.93,95.91,95.91,0,0,1-17.78,2.31,2.84,2.84,0,0,1-2.24-.71,3.29,3.29,0,0,1-.67-2.21A3,3,0,0,1,342,80c.26-.32.81-.56,1.89-.6s1.94-.2,2.88-.34l.4-.06V69.43h-5.31l-.05.41a40.12,40.12,0,0,1-3.27,12,4.05,4.05,0,0,1-1.5,2.2,3,3,0,0,1-2.44.9c-1.85,0-2.87-.32-3.3-.77a3.39,3.39,0,0,1-1.2-2.8c.08-.32.2-.72.36-1.19a30.67,30.67,0,0,0,4-11.13c.22-3.19.33-6.1.33-8.72V56.4c0-3.45,2-5.22,6.48-5.22ZM367.39,69.43l1.17.85a54.36,54.36,0,0,0,6.14,3.81l.25.13.24-.15a48.45,48.45,0,0,0,4.62-3.63,7.77,7.77,0,0,1,1.88-1H367.39"></path><path class="a" d="M430.2,43.89A69.81,69.81,0,0,1,417,45.94l-.33,0-.08.33A290.32,290.32,0,0,1,406.33,80a4,4,0,0,1-4.1,2.93,5.15,5.15,0,0,1-3.28-1.33,4,4,0,0,1-1.42-3.16,4.75,4.75,0,0,1,.38-1.76,277.47,277.47,0,0,0,9-29.49l.16-.61-.63,0q-3.64.14-6.81.14a4.29,4.29,0,0,1-3.37-1.29,4,4,0,0,1-1.05-3.11,4.56,4.56,0,0,1,1.19-3.15,4,4,0,0,1,3.23-1.29q4.22,0,9.26-.28l.36,0,.08-.35q.76-3.45,1.17-6c.43-2.67,1.88-3.92,4.49-3.88a4.86,4.86,0,0,1,3.22,1.26,3.9,3.9,0,0,1,1.36,3.1,33.24,33.24,0,0,1-.74,4.46l-.13.63.64-.07a54.26,54.26,0,0,0,8.42-1.39,8.46,8.46,0,0,1,1.45-.12,3.8,3.8,0,0,1,3,1.29,4.78,4.78,0,0,1,1.33,3.09c.16,2.13-.87,3.52-3.32,4.21m19.86,38A38.48,38.48,0,0,1,440.4,83c-7.59,0-12.58-.51-15.05-1.48-3.65-1.48-5.49-4.49-5.49-9.22a12.62,12.62,0,0,1,1.52-6.51,4.49,4.49,0,0,1,3.94-2.39,5.21,5.21,0,0,1,3.22.93,3,3,0,0,1,1.13,2.39,9.75,9.75,0,0,1-.53,2.48,10.63,10.63,0,0,0-.57,2.62c0,1.27.92,2.09,2.38,2.58a9.41,9.41,0,0,0,3.39.58,48.77,48.77,0,0,0,7.24-.76,49.17,49.17,0,0,1,7.09-.76c3.47,0,5,1.47,5,4.42,0,2-1.14,3.38-3.64,4M450,54a4.52,4.52,0,0,1-3.45,1.3q-3.19,0-8.45.42A56,56,0,0,0,429.87,57a6.19,6.19,0,0,1-1.26.12,4,4,0,0,1-3.22-1.48,5.12,5.12,0,0,1-1.13-3.36c0-2,1.07-3.25,3.43-3.81A94.7,94.7,0,0,1,437.14,47a76.87,76.87,0,0,1,9.79-.48,4.74,4.74,0,0,1,3.34,1.38,4.48,4.48,0,0,1,1,3A4.35,4.35,0,0,1,450,54"></path><path class="a" d="M510.06,76.1a5,5,0,0,1-1.2,3.29A3.58,3.58,0,0,1,506,80.8a5.46,5.46,0,0,1-2.8-.69A100,100,0,0,0,491.77,74l-.41-.17-.2.4a16.38,16.38,0,0,1-6.57,7A16.77,16.77,0,0,1,476,83.63a23.65,23.65,0,0,1-11.21-2.5c-3.4-1.83-5-4.17-5-7a9.17,9.17,0,0,1,4.27-8.16c2.88-2,6.91-3,12.15-3a49.21,49.21,0,0,1,7.09.54l.58.09,0-.58c-.1-1.32-.16-3.11-.21-5.35v-.49l-.49,0q-1.77.13-3.27.13-4.55,0-12.6-.2c-3.1,0-4.43-1.27-4.43-3.6A4,4,0,0,1,464,50.65a4.24,4.24,0,0,1,3.37-1.17q7.93.07,12.49.07h3.58l-.16-6.81-.48,0q-4.19.14-6.46.14-3.45,0-11.09-.14a4.75,4.75,0,0,1-3.27-1,3.39,3.39,0,0,1-1.09-2.49A4.39,4.39,0,0,1,462,36.23a4.31,4.31,0,0,1,3.44-1.16l10.89.07q2.21,0,6.21-.14H483l0-.47q-.07-1.78-.07-2.67a4.34,4.34,0,0,1,1.5-3.44,4,4,0,0,1,3-1,4.93,4.93,0,0,1,3.23,1.13,4.2,4.2,0,0,1,1.29,3.3v2.63l.49,0a88.75,88.75,0,0,0,12.21-1.25,5.33,5.33,0,0,1,1.14-.13,4,4,0,0,1,3,1.17A3.78,3.78,0,0,1,510.06,37c0,2.12-1.14,3.44-3.69,4a126.4,126.4,0,0,1-13.65,1.37l-.45,0,.16,6.81.5,0q7.54-.62,11.69-1.38a9.39,9.39,0,0,1,1.51-.13,3.83,3.83,0,0,1,2.84,1,3.44,3.44,0,0,1,1.1,2.62c0,2.34-1.15,3.72-3.61,4.23-3.07.55-7.5,1-13.32,1.44l-.44,0v.45q.14,5.51.14,7.92v.35l.33.1a61.85,61.85,0,0,1,14.71,6.63,4.11,4.11,0,0,1,2.18,3.74m-27.2-4.66.19-.51-.53-.12a30.37,30.37,0,0,0-6.3-.7c-4.4,0-7.3.85-7.3,3.22,0,1,.77,1.71,1.9,2.28a10.73,10.73,0,0,0,5.11,1.09c3.31,0,5.62-1.81,6.92-5.27"></path><path class="a" d="M543.13,83.21A46.67,46.67,0,0,1,527.64,81c-6.28-2.12-9.27-5.62-9.27-10.45,0-3.81.7-6.67,2-8.63,1.18-1.7,2.52-2.46,4-2.41a3.9,3.9,0,0,1,4,4.22,7.81,7.81,0,0,1-.59,2.54,9.77,9.77,0,0,0-.58,2.63c0,2.19,1.53,3.6,4.21,4.31,2.32.67,6.23,1,11.7,1q13.11,0,20.38-1.81a7.47,7.47,0,0,1,1.34-.12A4.05,4.05,0,0,1,568,73.58a5,5,0,0,1,1.19,3.28,4,4,0,0,1-3.43,4.3q-8.33,2.05-22.63,2.05"></path><path class="a" d="M559.73,40.15a4.88,4.88,0,0,1-3.55,1.64,126.13,126.13,0,0,1-12.91.62q-5.7,0-15.6-.83c-3.46-.35-5-1.93-5-4.71a4.13,4.13,0,0,1,1.37-3.1,4.66,4.66,0,0,1,3.78-1.12q9.05.77,12.44.76,7.18,0,14.93-.55A5.28,5.28,0,0,1,559.48,34a4.19,4.19,0,0,1,1.3,3.18,4.25,4.25,0,0,1-1.05,2.94"></path><path class="a" d="M33.15,106.22C21,99.88,11.79,88,7.95,73.72c-5.08-18.92,3.6-56,17-60.82S67.67,28,77,48.65a55.44,55.44,0,0,1,5,22.73,48.17,48.17,0,0,1-3.7,18.75C74.35,99.38,67.79,106.07,59.79,109s-17.58,2-26.64-2.75M22.73,6.78c-8.15,3-15.22,13.67-19.39,29.41C-.4,50.3-1.05,65.33,1.66,75.41,6,91.48,16.35,104.81,30.14,112c10.69,5.57,22,6.67,31.87,3.09S79.64,103.6,84.26,92.67C90.31,78.33,89.82,61.31,82.91,46,72.8,23.56,41.2.08,22.73,6.78"></path><path class="a" d="M64.09,109.2C56,106.23,49.35,99.41,45.45,90,40.2,77.28,40.78,62.3,47,48.87,55.31,31.11,85.76,8.32,99.15,13.21,109.8,17.1,117.93,39,117.93,58.82A56.81,56.81,0,0,1,116,74c-4.07,14.45-13.43,26.33-25.68,32.6-8.94,4.57-18.26,5.48-26.26,2.56m3.55-92c-11.94,8.41-22.1,19.5-26.5,29-7,15.08-7.65,32-1.7,46.34C44,103.6,52,111.72,61.85,115.32s20.89,2.53,31.46-2.88c13.86-7.09,24.42-20.44,29-36.63,6.66-23.67-2.45-62-20.91-68.71-8.14-3-20.44.69-33.75,10.06"></path><path class="a" d="M62,108.7c-8.64,0-17.19-4.16-24.09-11.69C28.6,86.89,24,72.62,25.3,57.85,27,38.33,47.82,6.5,62.08,6.52c14.42,0,35,28.83,36.66,51.39q.16,2.17.16,4.31c0,13.39-4.68,26-13.14,35.1-6.83,7.35-15.29,11.4-23.8,11.39M33.81,21c-8.35,12-14.09,25.89-15,36.28-1.44,16.58,3.75,32.66,14.25,44.13,8.14,8.89,18.4,13.8,28.89,13.81s20.5-4.77,28.58-13.47c10.6-11.4,16-27.56,14.7-44.33C103.4,32.9,81.73,0,62.09,0c-8.67,0-19,7.64-28.28,21"></path></svg> 