<?xml version="1.0" encoding="UTF-8"?> <svg xmlns="http://www.w3.org/2000/svg" width="124.47" height="117.39" viewBox="0 0 124.47 117.39"><defs><style>.a{fill:#f4981c;}</style></defs><title>logo_symbol</title><path class="a" d="M33.15,106.22C21,99.88,11.79,88,7.95,73.72c-5.08-18.92,3.6-56,17-60.82S67.67,28,77,48.65a55.44,55.44,0,0,1,5,22.73,48.17,48.17,0,0,1-3.7,18.75C74.35,99.38,67.79,106.07,59.79,109s-17.58,2-26.64-2.75M22.73,6.78c-8.15,3-15.22,13.67-19.39,29.41C-.4,50.3-1.05,65.33,1.66,75.41,6,91.48,16.35,104.81,30.14,112c10.69,5.57,22,6.67,31.87,3.09S79.64,103.6,84.26,92.67C90.31,78.33,89.82,61.31,82.91,46,72.8,23.56,41.2.08,22.73,6.78"></path><path class="a" d="M64.09,109.2C56,106.23,49.35,99.41,45.45,90,40.2,77.28,40.78,62.3,47,48.87,55.31,31.11,85.76,8.32,99.15,13.21,109.8,17.1,117.93,39,117.93,58.82A56.81,56.81,0,0,1,116,74c-4.07,14.45-13.43,26.33-25.68,32.6-8.94,4.57-18.26,5.48-26.26,2.56m3.55-92c-11.94,8.41-22.1,19.5-26.5,29-7,15.08-7.65,32-1.7,46.34C44,103.6,52,111.72,61.85,115.32s20.89,2.53,31.46-2.88c13.86-7.09,24.42-20.44,29-36.63,6.66-23.67-2.45-62-20.91-68.71-8.14-3-20.44.69-33.75,10.06"></path><path class="a" d="M62,108.7c-8.64,0-17.19-4.16-24.09-11.69C28.6,86.89,24,72.62,25.3,57.85,27,38.33,47.82,6.5,62.08,6.52c14.42,0,35,28.83,36.66,51.39q.16,2.17.16,4.31c0,13.39-4.68,26-13.14,35.1-6.83,7.35-15.29,11.4-23.8,11.39M33.81,21c-8.35,12-14.09,25.89-15,36.28-1.44,16.58,3.75,32.66,14.25,44.13,8.14,8.89,18.4,13.8,28.89,13.81s20.5-4.77,28.58-13.47c10.6-11.4,16-27.56,14.7-44.33C103.4,32.9,81.73,0,62.09,0c-8.67,0-19,7.64-28.28,21"></path></svg> 