<?xml version="1.0" encoding="UTF-8"?> <svg xmlns="http://www.w3.org/2000/svg" width="118" height="54" viewBox="0 0 118 54"><defs><style>.st0{fill:#231815;}.st1{fill:#E60012;}.st2{fill:#FFFFFF;}</style></defs><title>Zenno logo</title><path class="st0" d="M33,46.6c1.6-0.9,2.6-1.9,3.3-2.7c0.9,1.1,2.1,2,3.3,2.7H33z M39.7,46.6c0.8,0.4,1.3,0.6,1.6,0.8l0.5-0.9c-2.1-0.7-3.8-1.9-5-3.4h-1c-1.3,1.6-3.2,2.8-5,3.4l0.5,0.9c0.4-0.2,0.9-0.4,1.7-0.8v0.8h2.9V49h-3.6v0.8h3.6v2H31v0.8h10.5v-0.8h-4.7v-2h3.7V49h-3.7v-1.6h2.9V46.6z"></path><path class="st0" d="M48.6,45.1h-1.8v-0.6h1.8V45.1z M43.2,43.9v3h9.1v-3h-2.8v-0.5h-0.8v0.5h-1.8v-0.5H46v0.5H43.2z M48.6,46.2h-1.8v-0.6h1.8V46.2z M46,45.1h-1.9v-0.6H46V45.1z M46,46.2h-1.9v-0.6H46V46.2z M51.4,45.1h-1.9v-0.6h1.9V45.1z M51.4,46.2h-1.9v-0.6h1.9V46.2z M51.6,50.2h1.5v-0.6h-9c0-0.1,0-0.1,0-0.3v-1.4h8.8v-0.6h-9.7v2c0,1.8-0.6,2.6-0.9,3l0.8,0.6c0.1-0.2,0.3-0.4,0.4-0.7c0.3-0.6,0.5-1.2,0.5-1.9h1.3v1.7c-0.6,0-1,0-1.4,0.1l0.1,0.8c0.3,0,0.5,0,2.3-0.2c1.2-0.1,1.9-0.2,2.3-0.2l0-0.7c-0.7,0.1-1.7,0.2-2.4,0.2v-1.7h1.2c1.2,1.3,3.1,2.2,5.3,2.7l0.4-0.8c-0.4-0.1-1.3-0.2-2.4-0.6c0.7-0.4,1-0.6,1.3-0.9L51.6,50.2z M51.3,50.2c-0.4,0.3-0.9,0.6-1.4,0.9c-0.7-0.3-1.1-0.7-1.4-0.9H51.3z M52,48.5h-7.3v0.6H52V48.5z"></path><path class="st0" d="M16.2,49.6v0.6c0,1.1,0.6,1.5,1.5,1.5c1.3,0,1.6-0.7,1.6-1.6v-6.8h1.4v6.8c0,2.2-1.6,2.7-3,2.7c-2.4,0-2.9-1.4-2.9-2.3v-0.9H16.2z"></path><path class="st0" d="M23.5,49.9l-1.1,2.7H21l3.9-9.3h1.6l3.7,9.3h-1.5l-1-2.7H23.5z M27.2,48.8l-1.5-4.1h0L24,48.8H27.2z"></path><path class="st0" d="M54.1,47.6c1.8-1,3-2.4,3.6-4l1.1,0.2c-0.2,0.4-0.3,0.8-0.7,1.4h5.1c-0.4,1.9-1.2,3.8-2.7,5.2c-1.7,1.6-4,2.1-5.4,2.3l-0.4-0.9c2.6-0.4,5.9-1.2,7.2-5.8h-4.4c-1.2,1.5-2.1,2-2.8,2.3L54.1,47.6z M62,44.8c-0.2-0.6-0.3-0.9-0.6-1.5l0.8-0.2c0.3,0.5,0.5,1,0.7,1.4L62,44.8z M63.5,44.8c-0.1-0.2-0.3-0.8-0.7-1.4l0.8-0.2c0.3,0.5,0.5,0.9,0.7,1.4L63.5,44.8z"></path><path class="st0" d="M66.6,46.8c0,0.5-0.1,2-0.5,3.2c-0.3,1-1,1.9-1.8,2.7L63.5,52c0.4-0.4,1.3-1.1,1.6-2.4c0.2-0.9,0.4-2,0.4-2.6V44h1.1V46.8z M69.7,51.3c2.1-0.5,3.2-1.8,3.7-4.2l1,0.4C74,49,73.4,50,72.6,50.8c-1.4,1.4-3.1,1.6-4,1.6v-8.7h1.1V51.3z"></path><rect x="75.3" y="47.6" class="st0" width="10.2" height="1"></rect><path class="st0" d="M95.1,44.3c0,0.3-0.3,0.5-0.6,0.5s-0.6-0.2-0.6-0.5c0-0.3,0.3-0.5,0.6-0.5S95.1,44,95.1,44.3 M87,52.5c5.5-1,7-3.7,7.4-7.1c0.8,0,1.3-0.5,1.3-1.1c0-0.6-0.5-1.1-1.2-1.1c-0.6,0-1.2,0.5-1.2,1.1c0,0.1,0,0.1,0,0.2h-7.8v0.9h7.8c-0.5,3.4-2.1,5.5-6.8,6.2L87,52.5z"></path><path class="st1" d="M55.3,1.2c29.7,0,53.9,7.9,53.9,17.6c0,9.7-24.1,17.6-53.9,17.6S1.4,28.5,1.4,18.8C1.4,9,25.5,1.2,55.3,1.2"></path><polygon class="st2" points="45,19.9 45,17.3 23,17.3 23,19.9 31.4,19.9 31.4,21.7 23,21.7 23,24.3 31.4,24.3 31.4,26.2 23,26.2 23,29 45,29 45,26.2 36.4,26.2 36.4,24.3 45,24.3 45,21.7 36.4,21.7 36.4,19.9 "></polygon><path class="st2" d="M41.5,16.3H45v-3.9l-5,0c-3.5,0-3.7-3.4-3.7-3.4h-5.8c-1.8,6-7.5,5.4-7.5,5.4v1.9c0,0,8.9,0.7,12.4-4.7C35.4,11.5,36.9,16.3,41.5,16.3"></path><path class="st2" d="M87,9.8h-6.1V8.7h-3.5v1.1H75V8.7h-3.6v1.1h-6v6.7v0H87L87,9.8L87,9.8z M83.3,12.4h-2.4v-1h2.4V12.4zM77.4,12.4H75v-1h2.4V12.4z M77.4,15H75v-1h2.4V15z M69.1,11.3h2.3v1h-2.3V11.3z M69.1,13.9h2.3v1h-2.3V13.9z M80.9,13.9h2.4v1h-2.4V13.9z"></path><rect x="69.7" y="19.9" class="st2" width="17.2" height="1.7"></rect><path class="st2" d="M86.9,17.3H65.4v1.4V19v6.3c0,0,0.1,2.2-1.1,3.4h3.2c0,0,1.5-1.4,1.5-4.5V19h17.8V17.3z"></path><path class="st2" d="M85.4,27.7l1.6-2.8v-2.4H73.6h-3.9v1.7v3V29v0H76v-1.7h-2.4v-3h2.1c0,0,2.4,3.6,5.2,4.7h6.3C86,28.2,85.4,27.7,85.4,27.7 M82.1,25.7c-1.3-0.7-1.9-1.5-1.9-1.5h2.4L82.1,25.7z"></path><path class="st0" d="M112.9,1.1c2.1,0,3.7,1.6,3.7,3.6c0,2.1-1.6,3.7-3.7,3.7c-2.1,0-3.7-1.6-3.7-3.7C109.2,2.7,110.9,1.1,112.9,1.1M112.9,7.7c1.6,0,2.8-1.3,2.8-2.9c0-1.6-1.2-3-2.9-3c-1.6,0-2.8,1.3-2.8,3C110,6.5,111.4,7.7,112.9,7.7 M111.5,6.7V3c0.3-0.1,0.8-0.1,1.4-0.1c0.7,0,1.6,0.1,1.6,1.1c0,0.4-0.3,0.7-0.8,0.9v0.1c0.4,0.1,0.5,0.4,0.6,0.9c0.1,0.6,0.2,0.8,0.3,0.9h-0.8c-0.1-0.1-0.2-0.5-0.3-0.9c-0.1-0.6-0.5-0.6-1.2-0.6v1.5H111.5z M112.3,4.6c0.6,0,1.3,0,1.3-0.6c0-0.3-0.2-0.6-0.8-0.6c-0.2,0-0.4,0-0.5,0V4.6z"></path></svg> 